<svg xmlns="http://www.w3.org/2000/svg" viewBox="0 0 100 100" fill="none" role="img" aria-label="Mosaic">
  <title>Mosaic</title>
  <defs>
    <clipPath id="m-shape"><rect x="2" y="2" width="96" height="96" rx="20"/></clipPath>
  </defs>
  <g clip-path="url(#m-shape)">
    <rect width="100" height="100" fill="#F5F2EA"/>
    <rect x="6"  y="6"  width="17" height="17" rx="5" fill="#7B86D6"/>
    <rect x="25" y="6"  width="36" height="17" rx="4" fill="#7B86D6"/>
    <rect x="63" y="6"  width="14" height="17" rx="4" fill="#7B86D6"/>
    <rect x="79" y="6"  width="15" height="17" rx="6" fill="#C3B0DE"/>
    <rect x="6"  y="25" width="17" height="17" rx="4" fill="#7B86D6"/>
    <rect x="25" y="25" width="17" height="17" rx="5" fill="#F0A586"/>
    <rect x="44" y="25" width="17" height="17" rx="4" fill="#9CC4A2"/>
    <rect x="63" y="25" width="14" height="17" rx="4" fill="#7B86D6"/>
    <rect x="79" y="25" width="15" height="17" rx="4" fill="#7B86D6"/>
    <rect x="6"  y="44" width="17" height="17" rx="4" fill="#F0A586"/>
    <rect x="25" y="44" width="36" height="17" rx="5" fill="#F0A586"/>
    <rect x="63" y="44" width="14" height="17" rx="4" fill="#F4D58D"/>
    <rect x="79" y="44" width="15" height="17" rx="4" fill="#7B86D6"/>
    <rect x="6"  y="63" width="36" height="17" rx="5" fill="#7B86D6"/>
    <rect x="44" y="63" width="17" height="17" rx="4" fill="#9CC4A2"/>
    <rect x="63" y="63" width="14" height="17" rx="4" fill="#7B86D6"/>
    <rect x="79" y="63" width="15" height="17" rx="4" fill="#F0A586"/>
    <rect x="6"  y="82" width="17" height="12" rx="6" fill="#C3B0DE"/>
    <rect x="25" y="82" width="17" height="12" rx="4" fill="#7B86D6"/>
    <rect x="44" y="82" width="17" height="12" rx="4" fill="#7B86D6"/>
    <rect x="63" y="82" width="14" height="12" rx="4" fill="#7B86D6"/>
    <rect x="79" y="82" width="15" height="12" rx="6" fill="#C3B0DE"/>
  </g>
</svg>
